<svg width="100" height="101" viewBox="0 0 100 101" fill="none" xmlns="http://www.w3.org/2000/svg">
<rect x="0.5" y="1.09375" width="99" height="99" rx="49.5" fill="#191919" stroke="black"/>
<path d="M34.8164 46.5938V38.0625H37.6055C38.5312 38.0625 39.2266 38.2539 39.6914 38.6367C40.1602 39.0195 40.3945 39.5859 40.3945 40.3359C40.3945 40.7344 40.2812 41.0879 40.0547 41.3965C39.8281 41.7012 39.5195 41.9375 39.1289 42.1055C39.5898 42.2344 39.9531 42.4805 40.2188 42.8438C40.4883 43.2031 40.623 43.6328 40.623 44.1328C40.623 44.8984 40.375 45.5 39.8789 45.9375C39.3828 46.375 38.6816 46.5938 37.7754 46.5938H34.8164ZM35.9414 42.6035V45.6738H37.7988C38.3223 45.6738 38.7344 45.5391 39.0352 45.2695C39.3398 44.9961 39.4922 44.6211 39.4922 44.1445C39.4922 43.1172 38.9336 42.6035 37.8164 42.6035H35.9414ZM35.9414 41.7012H37.6406C38.1328 41.7012 38.5254 41.5781 38.8184 41.332C39.1152 41.0859 39.2637 40.752 39.2637 40.3301C39.2637 39.8613 39.127 39.5215 38.8535 39.3105C38.5801 39.0957 38.1641 38.9883 37.6055 38.9883H35.9414V41.7012ZM48.1152 42.6504H44.418V45.6738H48.7129V46.5938H43.293V38.0625H48.6543V38.9883H44.418V41.7305H48.1152V42.6504ZM53.627 42.791C52.6621 42.5137 51.959 42.1738 51.5176 41.7715C51.0801 41.3652 50.8613 40.8652 50.8613 40.2715C50.8613 39.5996 51.1289 39.0449 51.6641 38.6074C52.2031 38.166 52.9023 37.9453 53.7617 37.9453C54.3477 37.9453 54.8691 38.0586 55.3262 38.2852C55.7871 38.5117 56.1426 38.8242 56.3926 39.2227C56.6465 39.6211 56.7734 40.0566 56.7734 40.5293H55.6426C55.6426 40.0137 55.4785 39.6094 55.1504 39.3164C54.8223 39.0195 54.3594 38.8711 53.7617 38.8711C53.207 38.8711 52.7734 38.9941 52.4609 39.2402C52.1523 39.4824 51.998 39.8203 51.998 40.2539C51.998 40.6016 52.1445 40.8965 52.4375 41.1387C52.7344 41.377 53.2363 41.5957 53.9434 41.7949C54.6543 41.9941 55.209 42.2148 55.6074 42.457C56.0098 42.6953 56.3066 42.9746 56.498 43.2949C56.6934 43.6152 56.791 43.9922 56.791 44.4258C56.791 45.1172 56.5215 45.6719 55.9824 46.0898C55.4434 46.5039 54.7227 46.7109 53.8203 46.7109C53.2344 46.7109 52.6875 46.5996 52.1797 46.377C51.6719 46.1504 51.2793 45.8418 51.002 45.4512C50.7285 45.0605 50.5918 44.6172 50.5918 44.1211H51.7227C51.7227 44.6367 51.9121 45.0449 52.291 45.3457C52.6738 45.6426 53.1836 45.791 53.8203 45.791C54.4141 45.791 54.8691 45.6699 55.1855 45.4277C55.502 45.1855 55.6602 44.8555 55.6602 44.4375C55.6602 44.0195 55.5137 43.6973 55.2207 43.4707C54.9277 43.2402 54.3965 43.0137 53.627 42.791ZM65.1328 38.9883H62.3906V46.5938H61.2715V38.9883H58.5352V38.0625H65.1328V38.9883ZM30.4668 56.791C29.502 56.5137 28.7988 56.1738 28.3574 55.7715C27.9199 55.3652 27.7012 54.8652 27.7012 54.2715C27.7012 53.5996 27.9688 53.0449 28.5039 52.6074C29.043 52.166 29.7422 51.9453 30.6016 51.9453C31.1875 51.9453 31.709 52.0586 32.166 52.2852C32.627 52.5117 32.9824 52.8242 33.2324 53.2227C33.4863 53.6211 33.6133 54.0566 33.6133 54.5293H32.4824C32.4824 54.0137 32.3184 53.6094 31.9902 53.3164C31.6621 53.0195 31.1992 52.8711 30.6016 52.8711C30.0469 52.8711 29.6133 52.9941 29.3008 53.2402C28.9922 53.4824 28.8379 53.8203 28.8379 54.2539C28.8379 54.6016 28.9844 54.8965 29.2773 55.1387C29.5742 55.377 30.0762 55.5957 30.7832 55.7949C31.4941 55.9941 32.0488 56.2148 32.4473 56.457C32.8496 56.6953 33.1465 56.9746 33.3379 57.2949C33.5332 57.6152 33.6309 57.9922 33.6309 58.4258C33.6309 59.1172 33.3613 59.6719 32.8223 60.0898C32.2832 60.5039 31.5625 60.7109 30.6602 60.7109C30.0742 60.7109 29.5273 60.5996 29.0195 60.377C28.5117 60.1504 28.1191 59.8418 27.8418 59.4512C27.5684 59.0605 27.4316 58.6172 27.4316 58.1211H28.5625C28.5625 58.6367 28.752 59.0449 29.1309 59.3457C29.5137 59.6426 30.0234 59.791 30.6602 59.791C31.2539 59.791 31.709 59.6699 32.0254 59.4277C32.3418 59.1855 32.5 58.8555 32.5 58.4375C32.5 58.0195 32.3535 57.6973 32.0605 57.4707C31.7676 57.2402 31.2363 57.0137 30.4668 56.791ZM40.9004 56.6504H37.2031V59.6738H41.498V60.5938H36.0781V52.0625H41.4395V52.9883H37.2031V55.7305H40.9004V56.6504ZM45.0293 59.6738H49.0723V60.5938H43.8984V52.0625H45.0293V59.6738ZM52.4863 59.6738H56.5293V60.5938H51.3555V52.0625H52.4863V59.6738ZM63.6348 56.6504H59.9375V59.6738H64.2324V60.5938H58.8125V52.0625H64.1738V52.9883H59.9375V55.7305H63.6348V56.6504ZM69.7617 57.1426H67.7578V60.5938H66.627V52.0625H69.4512C70.4121 52.0625 71.1504 52.2812 71.666 52.7188C72.1855 53.1562 72.4453 53.793 72.4453 54.6289C72.4453 55.1602 72.3008 55.623 72.0117 56.0176C71.7266 56.4121 71.3281 56.707 70.8164 56.9023L72.8203 60.5234V60.5938H71.6133L69.7617 57.1426ZM67.7578 56.2227H69.4863C70.0449 56.2227 70.4883 56.0781 70.8164 55.7891C71.1484 55.5 71.3145 55.1133 71.3145 54.6289C71.3145 54.1016 71.1562 53.6973 70.8398 53.416C70.5273 53.1348 70.0742 52.9922 69.4805 52.9883H67.7578V56.2227Z" fill="white"/>
</svg>
